<svg width="80" height="80" viewBox="0 0 80 80" fill="none" xmlns="http://www.w3.org/2000/svg">
  <!-- Circle background -->
  <circle cx="40" cy="40" r="38" fill="#ffffff" stroke="#000000" stroke-width="4"/>

  <!-- NFC waves symbol -->
  <path d="M30 40 Q30 30, 40 30 Q50 30, 50 40 Q50 50, 40 50 Q30 50, 30 40"
        stroke="#000000"
        stroke-width="3"
        fill="none"/>

  <path d="M25 40 Q25 25, 40 25 Q55 25, 55 40 Q55 55, 40 55 Q25 55, 25 40"
        stroke="#000000"
        stroke-width="3"
        fill="none"
        opacity="0.6"/>

  <path d="M20 40 Q20 20, 40 20 Q60 20, 60 40 Q60 60, 40 60 Q20 60, 20 40"
        stroke="#000000"
        stroke-width="3"
        fill="none"
        opacity="0.3"/>

  <!-- Center dot -->
  <circle cx="40" cy="40" r="4" fill="#000000"/>
</svg>


